<svg width="256" height="256" viewBox="0 0 256 256" fill="none" xmlns="http://www.w3.org/2000/svg">
  <rect width="256" height="256" rx="56" fill="#F3F7FF"/>
  <path d="M157.312 84.5C176.626 84.5 193.16 95.6424 199.534 111.822C217.512 114.633 231 130.18 231 148.75C231 169.305 214.305 186 193.75 186H83.75C57.9387 186 37 165.061 37 139.25C37 114.359 56.4671 94.0156 81.0106 92.5663C89.389 72.0957 109.426 57.625 132.844 57.625C150.139 57.625 165.61 65.5361 175.798 77.9165C170.177 82.0942 163.219 84.5 157.312 84.5Z" fill="url(#paint0_linear_1_2)"/>
  <path d="M109.272 104.31C116.847 91.5786 130.731 83 146.612 83C166.837 83 183.766 96.7338 188.622 115.393C189.504 118.785 186.915 122 183.41 122H101.133C95.5916 122 92.0303 115.485 94.5038 110.529C95.9516 107.63 102.541 115.62 109.272 104.31Z" fill="url(#paint1_linear_1_2)"/>
  <path d="M84.1535 112.708C99.2726 112.708 111.532 124.967 111.532 140.086C111.532 155.205 99.2726 167.465 84.1535 167.465C69.0345 167.465 56.7749 155.205 56.7749 140.086C56.7749 124.967 69.0345 112.708 84.1535 112.708Z" fill="url(#paint2_linear_1_2)"/>
  <path d="M132.423 112.281H186.804C203.515 112.281 217.062 125.827 217.062 142.538C217.062 159.249 203.515 172.795 186.804 172.795H119.868C108.299 172.795 98.918 163.415 98.918 151.846C98.918 130.083 116.557 112.281 132.423 112.281Z" fill="url(#paint3_linear_1_2)"/>
  <defs>
    <linearGradient id="paint0_linear_1_2" x1="61.125" y1="66.125" x2="196.562" y2="181.125" gradientUnits="userSpaceOnUse">
      <stop stop-color="#0078D4"/>
      <stop offset="1" stop-color="#0057B8"/>
    </linearGradient>
    <linearGradient id="paint1_linear_1_2" x1="105.43" y1="86.125" x2="177.247" y2="130.593" gradientUnits="userSpaceOnUse">
      <stop stop-color="#42A5F5"/>
      <stop offset="1" stop-color="#0078D4"/>
    </linearGradient>
    <linearGradient id="paint2_linear_1_2" x1="62.061" y1="117.281" x2="105.871" y2="162.309" gradientUnits="userSpaceOnUse">
      <stop stop-color="#5AC8FA"/>
      <stop offset="1" stop-color="#1490E8"/>
    </linearGradient>
    <linearGradient id="paint3_linear_1_2" x1="107.002" y1="116.252" x2="206.643" y2="171.039" gradientUnits="userSpaceOnUse">
      <stop stop-color="#29B6F6"/>
      <stop offset="1" stop-color="#0067C5"/>
    </linearGradient>
  </defs>
</svg>
